<?xml version="1.0" encoding="UTF-8" standalone="no"?>
<!-- Created with Inkscape (http://www.inkscape.org/) -->

<svg
   width="48"
   height="48"
   viewBox="0 0 48 48"
   version="1.1"
   id="svg1"
   xml:space="preserve"
   inkscape:version="1.4 (86a8ad7, 2024-10-11)"
   sodipodi:docname="karierni-denik-logo.svg"
   xmlns:inkscape="http://www.inkscape.org/namespaces/inkscape"
   xmlns:sodipodi="http://sodipodi.sourceforge.net/DTD/sodipodi-0.dtd"
   xmlns="http://www.w3.org/2000/svg"
   xmlns:svg="http://www.w3.org/2000/svg"><sodipodi:namedview
     id="namedview1"
     pagecolor="#ffffff"
     bordercolor="#000000"
     borderopacity="0.25"
     inkscape:showpageshadow="2"
     inkscape:pageopacity="0.0"
     inkscape:pagecheckerboard="0"
     inkscape:deskcolor="#d1d1d1"
     inkscape:document-units="px"
     inkscape:zoom="11.313709"
     inkscape:cx="17.456699"
     inkscape:cy="24.262601"
     inkscape:window-width="1920"
     inkscape:window-height="991"
     inkscape:window-x="-9"
     inkscape:window-y="-9"
     inkscape:window-maximized="1"
     inkscape:current-layer="g1" /><defs
     id="defs1" /><g
     inkscape:label="Vrstva 1"
     inkscape:groupmode="layer"
     id="layer1"><g
       id="g1"
       transform="matrix(0.09987879,0,0,0.09987879,-0.55707035,-3.12549)"><path
         d="m 459.12692,44.573468 c 0,0 6.52083,54.971043 11.17822,82.226652 -5.97629,-4.50197 -19.54822,-10.63665 -19.54822,-10.63665 -6.40535,17.48743 -25.47844,59.60058 -72.83,106.42 -17.02,17.06 -37.01,31.12 -58.72,41.54 -30.66005,12.97329 -62.21394,21.07114 -95.51,17.97 -9.18,-1.02 -27.17,-5.25 -27.17,-5.25 -35.47455,36.18731 -107.569995,107.41 -107.569995,107.41 0,0 7.25888,-11.6241 100.239995,-124.12 0,0 36.77037,13.96912 89.67,-2.42 52.52848,-17.37969 88.5569,-60.8382 94.16,-67.91 22.14222,-25.20449 35.84996,-55.32901 48.79,-85.81 l -21.95775,-4.245549 c 25.0132,-15.007245 48.73233,-42.165283 59.26775,-55.174453 z"
         fill="#11a39a"
         opacity="1"
         stroke="#11a39a"
         stroke-width="0.25"
         id="path2"
         sodipodi:nodetypes="cccccccccccccc" /><path
         d="m 80.636925,110.20347 c 19.909995,1.05 39.449995,5.76 58.279995,12.13 37.06,13.23 70.9,35.37 98.02,63.84 0.43,0.01 1.27,0.02 1.69,0.03 38.71207,-38.0268 87.26065,-63.31945 141.17,-70.89 4.26409,-0.59881 8.61,-0.46 12.86,-1.2 0.69,9.17 0.25,27.6 0.25,27.6 l -6.43,11.87 c 0,0 -0.25,-21.11 -0.1,-31.67 -71.7885,2.53058 -145.06864,70.8822 -145.06864,70.8822 -0.45194,19.82574 -0.0414,59.4178 -0.0414,59.4178 l -6.25,-0.08 c 0,0 -0.67501,-39.58567 -0.11068,-59.34335 -14.36,-14.22 -29.98932,-28.39665 -47.24932,-39.01665 -22.51,-14.65 -47.43,-25.65 -73.65,-31.66 -8.83,-2.08 -17.769995,-4.06 -26.859995,-4.4 0.23,88.15 0.04,176.32 0.24,264.47 -0.27,5.21 -0.12,10.43 -0.04,15.65 17.509995,2.14 34.559995,6.86 51.459995,11.79 7.06,1.9 13.54,5.34 20.49,7.56 13.87,5.71 26.88,13.29 39.55,21.26 10.89,7.17 20.75,15.83 29.82,25.17 1.53,1.68 3.43,2.96 5.47,3.95 0.78,-18.65 0.03,-37.33 0.26,-55.99 -0.07,-13.16 0.09,-26.32 -0.07,-39.48 -0.03,-1.6 -0.03,-3.19 -0.01,-4.77 0.44,-24.31 0.07,-48.63 0.04,-72.94 9.91,1.05 19.86,0.19 29.76,-0.49 1.21,21.63 1.9,64.97 1.9,64.97 l -25.6,0.94 25.6,0.4 c 0,0 0.48,26.89 0.89,40.34 -0.01,20.01 0.09,40.03 0.9,60.03 0.83,-33.43 0.85,-66.88 1.65,-100.31 18.21,0.75 54.68,1.08 54.68,1.08 l 2.53,98.2 3.53,-97.73 c 0,0 24.84,0.37 37.25,1.07 18.45827,29.19122 26.63855,59.39885 34.8,92.05 -45.14806,4.68253 -89.73133,13.86366 -133.69,25.18 -10.06421,17.78129 -26.89081,18.45097 -34.95,17.6 -11.34523,-1.61586 -20.65566,-7.67947 -26.71,-17.43 -43.30227,-11.60679 -111.03223,-25.68451 -182.529995,-25.46 -0.04,-94.86 -0.28,-189.73 0.03,-284.59 6.63,0.32 13.36,-0.45 19.92,0.6 -0.31,24.91 -0.03,49.84 -0.11,74.76 0.11,63.15 -0.09,126.31 0.25,189.46 66.123015,-0.27153 122.936455,17.20507 184.329995,38.17 -57.94278,-31.48753 -109.33102,-44.52801 -175.309995,-46.47 -0.15,-96.65 0.11,-193.31 -0.11,-289.96 6.03,-0.2 12.05,-0.03 18.08,-0.02 0.65,91.45 -0.2,182.91 0.58,274.36 13.614599,1.37237 45.453375,5.69562 77.250075,17.48528 38.17444,14.15442 75.83992,36.04472 75.83992,36.04472 0,0 -26.39,-20.65 -41.16,-28.53 -31.59,-17.76 -67.09,-27.95 -102.989995,-32.09 -0.16,-1.51 -0.3,-3.03 -0.32,-4.54 0.07,-50.66 -0.05,-101.32 0.03,-151.98 -0.19,-39.98 0.2,-79.97 -0.37,-119.96 0.21,-5.78 0.22,-11.58 0.33,-17.36 z"
         fill="#15184f"
         opacity="1"
         stroke="#15184f"
         stroke-width="0.25"
         id="path3"
         sodipodi:nodetypes="ccccscccccccccccccccccccccccccccccccccccccccccccccccscccccccc" /><path
         d="m 370.66891,246.25389 c 11.61789,-9.61885 27.43525,-24.83223 40.33475,-40.37542 18.97761,-22.86697 33.06389,-46.48851 33.06389,-46.48851 0,0 -2.01329,100.60732 2.68937,116.01351 3.88,15.2 12.49,28.71 22.45,40.64 -10.72,12.61 -19.37,26.81 -27.78,41.02 -5.21,9.15 -10.34,18.37 -14.37,28.11 -5.8,13.67 -15.77089,45.56188 -15.77089,45.56188 0,0 -0.0191,-70.81188 0.32089,-104.28188 4.95,-1.69 9.78,-5.56 10.68,-10.97 3.14884,-21.00234 -33.5797,-22.18064 -26.8,3.26 1.2578,3.67174 5.20134,6.01838 9,7.54 0.1352,9.32398 -0.28,104.57 -0.28,104.57 0,0 -7.81,-26.66 -13.18,-39.48 -8.32,-19.44 -18.96,-37.81 -30.46,-55.52 -4.32,-6.83 -9.95,-12.69 -14.43,-19.4 7.14,-9.56 13.98,-19.63 17.75,-31.05 2.03,-6.18 4.07,-12.41 4.81,-18.89 1.1,-6.99 1.40199,-13.21958 1.97199,-20.25958 z"
         fill="#15184f"
         opacity="1"
         stroke="#15184f"
         stroke-width="0.25"
         id="path4"
         sodipodi:nodetypes="csccccccccccccccccc" /><path
         d="m 331.27692,271.57347 c 0,0 8.13816,-3.89481 15.87934,-8.73018 5.35905,-3.34742 9.95758,-7.30853 13.88066,-10.06982 0.84061,24.14952 -11.22791,45.2825 -24.04,62.51 -2.23,-0.06 -6.67,-0.1 -6.67,-0.1 z"
         fill="#15184f"
         opacity="1"
         stroke="#15184f"
         stroke-width="0.25"
         id="path5"
         sodipodi:nodetypes="cscccc" /><path
         d="m 323.15692,275.85347 c 0.21,13.1 0.82,26.19 1.04,39.29 -6.37756,0.15747 -43.85,2.05 -43.85,2.05 0,0 29.40498,1.46791 43.81,1.78 0,0 0.14,25.43 0.18,38.15 -18.29,1.04 -54.91,1.77 -54.91,1.77 0,0 0.94,-44.37 2.01,-66.54 18.03886,-3.00662 35.06923,-9.21072 51.72,-16.5 z"
         fill="#15184f"
         opacity="1"
         stroke="#15184f"
         stroke-width="0.25"
         id="path6"
         sodipodi:nodetypes="cccccccc" /><path
         d="m 205.30781,291.26373 c -0.0473,-0.14704 3.57103,1.00671 29.04911,3.11974 0.03,24.31 0.4,48.63 -0.04,72.94 -10.05,-0.32 -20.11,0.15 -30.16,-0.18 0.23,-11.7 0.25,-35.09 0.25,-35.09 l 30.10945,-0.21907 -0.006,-1.64412 -30.04345,-1.41681 z"
         fill="#9b9cad"
         opacity="1"
         stroke="#9b9cad"
         stroke-width="0.25"
         id="path7"
         sodipodi:nodetypes="ccccccccc" /><path
         d="m 165.16692,324.93347 c 10.76,-10.04 32.04,-30.37 32.04,-30.37 l 1.11304,34.05133 c 0,0 -37.60538,0.67684 -37.87304,0.67082 1.42,-1.76 3.02,-2.85215 4.72,-4.35215 z"
         fill="#9b9cad"
         opacity="1"
         stroke="#9b9cad"
         stroke-width="0.25"
         id="path8"
         sodipodi:nodetypes="ccccc" /><path
         d="m 330.04692,318.84347 c 0,0 4.32,0.08 6.49,0.15 10.28316,11.73828 18.93308,24.71409 27.58618,37.66596 l -33.98618,0.35404 z"
         fill="#15184f"
         opacity="1"
         stroke="#15184f"
         stroke-width="0.25"
         id="path9"
         sodipodi:nodetypes="ccccc" /><path
         d="m 159.22692,330.78347 c 12.93521,0.73157 39.07,1.15 39.07,1.15 l -0.92266,34.79215 c 0,0 -28.0969,1.9616 -42.18734,2.43785 0.2,-9.87 1.21,-19.71 1.31,-29.59 -0.11,-3.17 1.24,-6.08 2.73,-8.79 z"
         fill="#9b9cad"
         opacity="1"
         stroke="#9b9cad"
         stroke-width="0.25"
         id="path10"
         sodipodi:nodetypes="cccccc" /><path
         d="m 151.21996,338.76126 c 0,0 1.40429,50.69935 2.21696,75.57221 0,0 1.50569,-29.68451 1.86,-44.38 17.49616,0.38947 42.15646,1.51215 42.15646,1.51215 l 3.74354,67.51785 c 0,0 0.52684,-6.63541 2.93,-67.02 0,0 20.14,0.03 30.2,0.13 0.16,13.16 0,26.32 0.07,39.48 -0.23,18.66 0.52,37.34 -0.26,55.99 -8.2415,-3.99955 -33.88384,-38.94444 -95.33,-57.94 -16.9,-4.93 -50.835686,-11.93706 -50.835686,-11.93706 0.423209,-0.31281 22.294566,-18.91897 63.248726,-58.92515 z"
         fill="#9b9cad"
         opacity="1"
         stroke="#9b9cad"
         stroke-width="0.25"
         id="path11"
         sodipodi:nodetypes="cccccccccccc" /></g></g></svg>
